REM DIRINDEX 1\2\6,1\2\7,1\2\8,1\2\9,1\3\10,1\3\11,1\4\12,1\4\13,1\4\14,1\5\15,1\5\16,1\5\17
REM DIRNAME folder01,folder02,folder03,folder04,folder05,folder06,folder07,folder08,folder09,folder10,folder11,folder12,folder13,folder14,folder15,folder16,folder17
TITLE ""
FILE "1900_3_026 sec05_0416_0431.mp3" MP3
  TRACK 01 AUDIO
    TITLE "0:"
    INDEX 01 00:00:00
  TRACK 02 AUDIO
    TITLE "17:cjc020_6802"
    INDEX 01 00:00:19
  TRACK 03 AUDIO
    TITLE "0:"
    INDEX 01 00:01:42
  TRACK 04 AUDIO
    TITLE "16:cjc020_6803"
    INDEX 01 00:01:48
  TRACK 05 AUDIO
    TITLE "0:"
    INDEX 01 00:02:67
  TRACK 06 AUDIO
    TITLE "17:cjc020_6804"
    INDEX 01 00:03:47
  TRACK 07 AUDIO
    TITLE "0:"
    INDEX 01 00:04:66
  TRACK 08 AUDIO
    TITLE "16:cjc020_6805"
    INDEX 01 00:04:72
  TRACK 09 AUDIO
    TITLE "0:"
    INDEX 01 00:06:04
  TRACK 10 AUDIO
    TITLE "17:cjc020_6806"
    INDEX 01 00:06:63
  TRACK 11 AUDIO
    TITLE "0:"
    INDEX 01 00:07:72
  TRACK 12 AUDIO
    TITLE "16:cjc020_6807"
    INDEX 01 00:08:01
  TRACK 13 AUDIO
    TITLE "0:"
    INDEX 01 00:09:10
  TRACK 14 AUDIO
    TITLE "17:cjc020_6808"
    INDEX 01 00:09:67
  TRACK 15 AUDIO
    TITLE "0:"
    INDEX 01 00:11:11
  TRACK 16 AUDIO
    TITLE "16:cjc020_6809"
    INDEX 01 00:11:15
  TRACK 17 AUDIO
    TITLE "0:"
    INDEX 01 00:12:16
  TRACK 18 AUDIO
    TITLE "17:cjc020_6810"
    INDEX 01 00:12:73
  TRACK 19 AUDIO
    TITLE "0:"
    INDEX 01 00:14:23
  TRACK 20 AUDIO
    TITLE "16:cjc020_6811"
    INDEX 01 00:14:31
  TRACK 21 AUDIO
    TITLE "0:"
    INDEX 01 00:15:36
  TRACK 22 AUDIO
    TITLE "17:cjc020_6812"
    INDEX 01 00:16:20
  TRACK 23 AUDIO
    TITLE "0:"
    INDEX 01 00:17:41
  TRACK 24 AUDIO
    TITLE "16:cjc020_6813"
    INDEX 01 00:17:43
  TRACK 25 AUDIO
    TITLE "0:"
    INDEX 01 00:18:68
  TRACK 26 AUDIO
    TITLE "17:cjc020_6814"
    INDEX 01 00:19:52
  TRACK 27 AUDIO
    TITLE "0:"
    INDEX 01 00:20:47
  TRACK 28 AUDIO
    TITLE "16:cjc020_6815"
    INDEX 01 00:20:51
  TRACK 29 AUDIO
    TITLE "0:"
    INDEX 01 00:21:53
  TRACK 30 AUDIO
    TITLE "17:cjc020_6816"
    INDEX 01 00:22:38
  TRACK 31 AUDIO
    TITLE "0:"
    INDEX 01 00:23:65
  TRACK 32 AUDIO
    TITLE "16:cjc020_6817"
    INDEX 01 00:23:71
  TRACK 33 AUDIO
    TITLE "0:"
    INDEX 01 00:25:09
  TRACK 34 AUDIO
    TITLE "17:cjc020_6818"
    INDEX 01 00:25:70
  TRACK 35 AUDIO
    TITLE "0:"
    INDEX 01 00:27:06
  TRACK 36 AUDIO
    TITLE "16:cjc020_6819"
    INDEX 01 00:27:10
  TRACK 37 AUDIO
    TITLE "0:"
    INDEX 01 00:28:21
  TRACK 38 AUDIO
    TITLE "17:cjc020_6820"
    INDEX 01 00:29:05
  TRACK 39 AUDIO
    TITLE "0:"
    INDEX 01 00:30:12
  TRACK 40 AUDIO
    TITLE "16:cjc020_6821"
    INDEX 01 00:30:16
  TRACK 41 AUDIO
    TITLE "0:"
    INDEX 01 00:31:20
  TRACK 42 AUDIO
    TITLE "17:cjc020_6822"
    INDEX 01 00:32:05
  TRACK 43 AUDIO
    TITLE "0:"
    INDEX 01 00:32:66
  TRACK 44 AUDIO
    TITLE "16:cjc020_6823"
    INDEX 01 00:32:70
  TRACK 45 AUDIO
    TITLE "0:"
    INDEX 01 00:34:08
  TRACK 46 AUDIO
    TITLE "17:cjc020_6824"
    INDEX 01 00:34:65
  TRACK 47 AUDIO
    TITLE "0:"
    INDEX 01 00:35:66
  TRACK 48 AUDIO
    TITLE "16:cjc020_6825"
    INDEX 01 00:35:68
  TRACK 49 AUDIO
    TITLE "0:"
    INDEX 01 00:37:01
  TRACK 50 AUDIO
    TITLE "17:cjc020_6826"
    INDEX 01 00:37:67
  TRACK 51 AUDIO
    TITLE "0:"
    INDEX 01 00:39:03
  TRACK 52 AUDIO
    TITLE "16:cjc020_6827"
    INDEX 01 00:39:09
  TRACK 53 AUDIO
    TITLE "0:"
    INDEX 01 00:40:11
  TRACK 54 AUDIO
    TITLE "17:cjc020_6828"
    INDEX 01 00:41:00
  TRACK 55 AUDIO
    TITLE "0:"
    INDEX 01 00:42:04
  TRACK 56 AUDIO
    TITLE "16:cjc020_6829"
    INDEX 01 00:42:12
  TRACK 57 AUDIO
    TITLE "0:"
    INDEX 01 00:43:13
  TRACK 58 AUDIO
    TITLE "17:cjc020_6830"
    INDEX 01 00:43:68
  TRACK 59 AUDIO
    TITLE "0:"
    INDEX 01 00:45:12
  TRACK 60 AUDIO
    TITLE "16:cjc020_6831"
    INDEX 01 00:45:16
  TRACK 61 AUDIO
    TITLE "0:"
    INDEX 01 00:46:27
  TRACK 62 AUDIO
    TITLE "17:cjc020_6832"
    INDEX 01 00:47:09
  TRACK 63 AUDIO
    TITLE "0:"
    INDEX 01 00:48:10
  TRACK 64 AUDIO
    TITLE "16:cjc020_6833"
    INDEX 01 00:48:16
  TRACK 65 AUDIO
    TITLE "0:"
    INDEX 01 00:49:12
